<svg width="14" height="10" viewBox="0 0 14 10" fill="none" xmlns="http://www.w3.org/2000/svg">
<path d="M5.88844 1.28215C6.17425 0.988753 6.17425 0.513447 5.88844 0.220049C5.60263 -0.0733496 5.13962 -0.0733496 4.85382 0.220049L0.713404 4.46895C0.576216 4.60978 0.5 4.80098 0.5 5C0.5 5.19902 0.576216 5.39022 0.713404 5.53105L4.85382 9.77995C5.13962 10.0734 5.60263 10.0734 5.88844 9.77995C6.17425 9.48655 6.17425 9.01125 5.88844 8.71785L3.04751 5.80098H12.7683C13.1723 5.80098 13.5 5.46455 13.5 5.04988C13.5 4.85477 13.4276 4.67677 13.3076 4.54328C13.1742 4.39315 12.9817 4.29878 12.7683 4.29878H2.95033L5.88844 1.28215Z" fill="#212121"/>
</svg>
