<svg width="26" height="10" viewBox="0 0 26 10" fill="none" xmlns="http://www.w3.org/2000/svg">
<path d="M20.6116 1.28215C20.3257 0.988753 20.3257 0.513447 20.6116 0.220049C20.8974 -0.0733496 21.3604 -0.0733496 21.6462 0.220049L25.7866 4.46895C25.9238 4.60978 26 4.80098 26 5C26 5.19902 25.9238 5.39022 25.7866 5.53105L21.6462 9.77995C21.3604 10.0734 20.8974 10.0734 20.6116 9.77995C20.3257 9.48655 20.3257 9.01125 20.6116 8.71785L23.4525 5.80098H0.73167C0.327728 5.80098 0 5.46455 0 5.04988C0 4.85477 0.0724049 4.67677 0.192444 4.54328C0.325821 4.39315 0.518267 4.29878 0.73167 4.29878H23.5497L20.6116 1.28215Z" fill="white"/>
</svg>
