<svg width="14" height="10" viewBox="0 0 14 10" fill="none" xmlns="http://www.w3.org/2000/svg">
<path d="M8.11156 1.28215C7.82575 0.988753 7.82575 0.513447 8.11156 0.220049C8.39737 -0.0733496 8.86038 -0.0733496 9.14618 0.220049L13.2866 4.46895C13.4238 4.60978 13.5 4.80098 13.5 5C13.5 5.19902 13.4238 5.39022 13.2866 5.53105L9.14618 9.77995C8.86038 10.0734 8.39737 10.0734 8.11156 9.77995C7.82575 9.48655 7.82575 9.01125 8.11156 8.71785L10.9525 5.80098H1.23167C0.827727 5.80098 0.5 5.46455 0.5 5.04988C0.5 4.85477 0.572404 4.67677 0.692444 4.54328C0.825821 4.39315 1.01827 4.29878 1.23167 4.29878H11.0497L8.11156 1.28215Z" fill="white"/>
</svg>
