<?xml version="1.0" encoding="UTF-8" standalone="no"?>
<svg
   width="32"
   height="32"
   viewBox="0 0 32 32"
   fill="none"
   version="1.1"
   id="svg6"
   sodipodi:docname="block.svg"
   inkscape:version="1.2.1 (9c6d41e410, 2022-07-14)"
   xmlns:inkscape="http://www.inkscape.org/namespaces/inkscape"
   xmlns:sodipodi="http://sodipodi.sourceforge.net/DTD/sodipodi-0.dtd"
   xmlns="http://www.w3.org/2000/svg"
   xmlns:svg="http://www.w3.org/2000/svg">
  <defs
     id="defs10" />
  <sodipodi:namedview
     id="namedview8"
     pagecolor="#ffffff"
     bordercolor="#000000"
     borderopacity="0.25"
     inkscape:showpageshadow="2"
     inkscape:pageopacity="0.0"
     inkscape:pagecheckerboard="0"
     inkscape:deskcolor="#d1d1d1"
     showgrid="false"
     inkscape:zoom="26.15625"
     inkscape:cx="16.019116"
     inkscape:cy="16.019116"
     inkscape:window-width="1920"
     inkscape:window-height="1017"
     inkscape:window-x="-8"
     inkscape:window-y="32"
     inkscape:window-maximized="1"
     inkscape:current-layer="svg6" />
  <path
     style="color:#000000;fill:#ffffff;-inkscape-stroke:none"
     d="M 16,0 C 7.1752984,0 0,7.1752985 0,16 0,24.82473 7.1753009,32 16,32 24.824727,32 32,24.824727 32,16 32,7.1753009 24.824729,1.0652354e-6 16,0 Z m 0,2 c 7.743854,9e-7 14,6.2561756 14,14 0,7.743856 -6.256144,14 -14,14 C 8.2561756,30 2,23.743854 2,16 2,8.256178 8.2561781,2 16,2 Z"
     id="path2" />
  <path
     style="color:#000000;fill:#ffffff;-inkscape-stroke:none"
     d="M 27,5 4.7246094,27.275391 6.1386719,28.689453 28.414062,6.4140625 Z"
     id="line4" />
</svg>
