<svg width="33" height="32" viewBox="0 0 33 32" fill="none" xmlns="http://www.w3.org/2000/svg">
<path d="M5.15102e-06 7.03232C-1.26922e-05 7.0323 2.2993e-05 7.03234 5.15102e-06 7.03232C0.00259457 7.03572 0.0051959 7.03911 0.00780914 7.0425L0.00146837 7.03424L5.15102e-06 7.03232Z" fill="white"/>
<path d="M0.852148 7.69432C0.852147 7.69432 0.85215 7.69432 0.852148 7.69432V7.69432Z" fill="white"/>
<path d="M1.66229 6.79006C1.37663 6.79006 1.0957 6.67244 0.891529 6.44513C0.879122 6.42679 0.866083 6.40875 0.852411 6.39102C0.502124 5.9369 0.586355 5.28885 1.03762 4.94071C5.1494 1.76945 10.5916 0 16.3733 0C22.155 0 27.5974 1.76948 31.7092 4.94079C32.16 5.28872 32.2444 5.93602 31.8949 6.39004C31.5442 6.84065 30.8947 6.92367 30.444 6.57626C26.6479 3.64717 21.6423 2.06319 16.3681 2.06319C11.0944 2.06319 6.08949 3.64681 2.29349 6.57523C2.10303 6.72101 1.88172 6.79006 1.66229 6.79006Z" fill="white"/>
<path d="M17.4023 20.4617C17.4023 21.0328 16.9392 21.4959 16.3681 21.4959C15.7969 21.4959 15.3339 21.0328 15.3339 20.4617C15.3339 19.8906 15.7969 19.4275 16.3681 19.4275C16.9392 19.4275 17.4023 19.8906 17.4023 20.4617Z" fill="white"/>
<path fill-rule="evenodd" clip-rule="evenodd" d="M2.20375 20.4617C2.20375 18.333 3.53049 15.4437 6.05346 13.0526C8.54492 10.6913 12.0979 8.92339 16.3681 8.92339C20.6382 8.92339 24.1912 10.6913 26.6827 13.0526C29.2057 15.4437 30.5324 18.333 30.5324 20.4617C30.5324 22.5904 29.2057 25.4797 26.6827 27.8708C24.1912 30.2321 20.6382 32 16.3681 32C12.0979 32 8.54492 30.2321 6.05346 27.8708C3.53049 25.4797 2.20375 22.5904 2.20375 20.4617ZM4.27207 20.4617C4.27207 21.3111 4.59425 22.3174 5.11057 23.2993C5.63859 24.3034 6.41478 25.369 7.42641 26.3449C9.45567 28.3026 12.4691 29.9317 16.3681 29.9317C20.267 29.9317 23.2805 28.3026 25.3098 26.3449C26.3214 25.369 27.0976 24.3034 27.6256 23.2993C28.1419 22.3174 28.4641 21.3111 28.4641 20.4617C28.4641 19.6123 28.1419 18.606 27.6256 17.6241C27.0976 16.62 26.3214 15.5544 25.3098 14.5785C23.2805 12.6208 20.267 10.9917 16.3681 10.9917C12.4691 10.9917 9.45567 12.6208 7.42641 14.5785C6.41478 15.5544 5.63859 16.62 5.11057 17.6241C4.59425 18.606 4.27207 19.6123 4.27207 20.4617Z" fill="white"/>
</svg>
