<?xml version="1.0" encoding="UTF-8" standalone="no"?>
<svg
   width="20"
   height="20"
   viewBox="0 0 20 20"
   fill="none"
   version="1.1"
   id="svg4"
   sodipodi:docname="header-calendar.svg"
   inkscape:version="1.2.1 (9c6d41e410, 2022-07-14)"
   xmlns:inkscape="http://www.inkscape.org/namespaces/inkscape"
   xmlns:sodipodi="http://sodipodi.sourceforge.net/DTD/sodipodi-0.dtd"
   xmlns="http://www.w3.org/2000/svg"
   xmlns:svg="http://www.w3.org/2000/svg">
  <defs
     id="defs8" />
  <sodipodi:namedview
     id="namedview6"
     pagecolor="#ffffff"
     bordercolor="#000000"
     borderopacity="0.25"
     inkscape:showpageshadow="2"
     inkscape:pageopacity="0.0"
     inkscape:pagecheckerboard="0"
     inkscape:deskcolor="#d1d1d1"
     showgrid="false"
     inkscape:zoom="41.85"
     inkscape:cx="10.011947"
     inkscape:cy="10.011947"
     inkscape:window-width="1920"
     inkscape:window-height="1017"
     inkscape:window-x="-8"
     inkscape:window-y="32"
     inkscape:window-maximized="1"
     inkscape:current-layer="svg4" />
  <g
     id="path2">
    <path
       style="color:#000000;fill:#5e5e5e;stroke-width:0.3;-inkscape-stroke:none"
       d="M 4.78219,4.72899 4.9,4.70311 V 4.58249 3 C 4.9,2.53035 5.28035,2.15 5.75,2.15 6.21965,2.15 6.6,2.53035 6.6,3 V 4.5 4.65 H 6.75 9 9.15 V 4.5 3 c 0,-0.46965 0.38035,-0.85 0.85,-0.85 0.4696,0 0.85,0.38035 0.85,0.85 V 4.5 4.65 H 11 13.25 13.4 V 4.5 3 c 0,-0.46965 0.3804,-0.85 0.85,-0.85 0.4696,0 0.85,0.38035 0.85,0.85 v 1.58249 0.12062 l 0.1178,0.02588 C 16.7208,5.05927 17.85,6.39975 17.85,8 v 6.5 c 0,1.8471 -1.5029,3.35 -3.35,3.35 h -9 C 3.65285,17.85 2.15,16.3471 2.15,14.5 V 8 C 2.15,6.39975 3.27921,5.05927 4.78219,4.72899 Z M 13.35,13 c 0,0.4696 -0.3804,0.85 -0.85,0.85 h -5 c -0.46965,0 -0.85,-0.3804 -0.85,-0.85 0,-0.4696 0.38035,-0.85 0.85,-0.85 h 5 c 0.4696,0 0.85,0.3804 0.85,0.85 z M 5.5,6.35 C 4.58964,6.35 3.85,7.08964 3.85,8 v 6.5 c 0,0.9104 0.73964,1.65 1.65,1.65 h 9 c 0.9104,0 1.65,-0.7396 1.65,-1.65 V 8 c 0,-0.91036 -0.7396,-1.65 -1.65,-1.65 z"
       id="path116" />
    <path
       style="color:#000000;fill:#0f0f0f;-inkscape-stroke:none"
       d="m 5.75,2 c -0.5506353,0 -1,0.4493647 -1,1 V 4.5820312 C 3.1793072,4.9271911 2,6.3291871 2,8 v 6.5 C 2,16.428461 3.5714887,18 5.5,18 h 9 C 16.428463,18 18,16.428463 18,14.5 V 8 C 18,6.3291877 16.820712,4.9271909 15.25,4.5820312 V 3 c 0,-0.5506459 -0.449406,-1 -1,-1 -0.550594,0 -1,0.4493541 -1,1 V 4.5 H 11 V 3 C 11,2.4493541 10.550594,2 10,2 9.4493647,2 9,2.4493647 9,3 V 4.5 H 6.75 V 3 c 0,-0.5506353 -0.4493647,-1 -1,-1 z m 0,0.3007813 C 6.1386638,2.3007813 6.4492187,2.6113362 6.4492187,3 V 4.5 4.8007812 H 6.75 9 9.3007813 V 4.5 3 c 0,-0.3886638 0.3105549,-0.6992187 0.6992187,-0.6992187 0.388605,0 0.699219,0.3105656 0.699219,0.6992187 V 4.5 4.8007812 H 11 13.25 13.550781 V 4.5 3 c 0,-0.3886531 0.310614,-0.6992187 0.699219,-0.6992187 0.388605,0 0.699219,0.3105656 0.699219,0.6992187 V 4.5820312 4.8242187 L 15.185547,4.875 C 16.620832,5.1903997 17.699219,6.4703155 17.699219,8 v 6.5 c 0,1.765733 -1.433486,3.199219 -3.199219,3.199219 h -9 C 3.734215,17.699219 2.3007813,16.265736 2.3007813,14.5 V 8 c 0,-1.5296839 1.0784076,-2.8096006 2.5136718,-3.125 L 5.0507812,4.8242187 V 4.5820312 3 c 0,-0.3886638 0.310555,-0.6992187 0.6992188,-0.6992187 z M 5.5,6.1992187 C 4.508394,6.1992187 3.6992187,7.008394 3.6992188,8 v 6.5 c -1e-7,0.991642 0.8091796,1.800781 1.8007812,1.800781 h 9 c 0.991638,0 1.800781,-0.809143 1.800781,-1.800781 V 8 C 16.300781,7.0083984 15.491642,6.1992188 14.5,6.1992187 Z M 5.5,6.5 h 9 C 15.329156,6.5 16,7.1708834 16,8 v 6.5 c 0,0.82916 -0.67084,1.5 -1.5,1.5 h -9 C 4.6708834,16 4,15.329156 4,14.5 V 8 C 4,7.1708878 4.6708878,6.5 5.5,6.5 Z m 2,5.5 c -0.5506459,0 -1,0.449406 -1,1 0,0.550594 0.4493541,1 1,1 h 5 c 0.550605,0 1,-0.449395 1,-1 0,-0.550605 -0.449395,-1 -1,-1 z m 0,0.300781 h 5 c 0.388594,0 0.699219,0.310625 0.699219,0.699219 0,0.388594 -0.310625,0.699219 -0.699219,0.699219 h -5 c -0.3886531,0 -0.6992187,-0.310614 -0.6992188,-0.699219 0,-0.388605 0.3105657,-0.699219 0.6992188,-0.699219 z"
       id="path118" />
  </g>
</svg>
