<svg width="20" height="20" viewBox="0 0 20 20" fill="none" xmlns="http://www.w3.org/2000/svg">
<path d="M10.0835 2.15045H9.99978C7.91781 2.15045 5.92122 2.97746 4.44912 4.44955C2.97701 5.92184 2.15 7.91848 2.15 10.0002C2.15 12.082 2.97701 14.0788 4.44911 15.5509C5.92139 17.023 7.91803 17.85 9.99978 17.85H10.8497V16.1499H9.99978C8.36869 16.1499 6.80433 15.502 5.65105 14.3487C4.49778 13.1954 3.84983 11.631 3.84983 10C3.84983 8.36896 4.49778 6.80455 5.65105 5.65128C6.80433 4.498 8.36874 3.85006 9.99978 3.85006C11.6308 3.85006 13.1952 4.498 14.3485 5.65128C15.5018 6.80455 16.1497 8.36896 16.1497 10V10.9999C16.1497 11.4108 15.9305 11.7904 15.5748 11.996L15.5748 11.996C15.219 12.2013 14.7806 12.2014 14.4249 11.996L14.4248 11.996C14.0691 11.7904 13.8499 11.4108 13.8499 10.9999V10V9.99941C13.8546 8.80585 13.3077 7.67705 12.3681 6.94092C11.4283 6.20497 10.2014 5.94443 9.04377 6.23519L9.04375 6.2352C7.88607 6.52578 6.92756 7.33494 6.44711 8.42743L6.44711 8.42744C5.96646 9.52015 6.01752 10.7735 6.58559 11.8232L6.5856 11.8232C7.15352 12.8729 8.17482 13.6015 9.35229 13.7967L9.35231 13.7967C10.5297 13.9921 11.7314 13.6325 12.608 12.8224L12.7231 12.716L12.8243 12.8356C13.33 13.433 14.059 13.7963 14.8403 13.8401C15.6218 13.8838 16.3868 13.6043 16.9561 13.0672L10.0835 2.15045ZM10.0835 2.15045C11.4326 2.16484 12.7557 2.52672 13.9249 3.2017C15.1183 3.89063 16.1092 4.88157 16.7982 6.07493C17.4871 7.26834 17.8499 8.62204 17.8499 10V10.9997C17.8485 11.7824 17.5252 12.5299 16.9561 13.0672L10.0835 2.15045ZM8.47939 11.5208L8.47945 11.5208C8.88268 11.9238 9.42948 12.1505 9.99978 12.1505C10.5701 12.1505 11.1169 11.9239 11.5201 11.5208L11.5202 11.5208C11.9232 11.1175 12.1498 10.5707 12.1498 10.0004C12.1498 9.43015 11.9232 8.88332 11.5202 8.48011L11.5201 8.48006C11.1169 8.07705 10.5701 7.85039 9.99978 7.85039C9.42948 7.85039 8.88265 8.07704 8.47944 8.48006L8.47939 8.48012C8.07638 8.88335 7.84972 9.43015 7.84972 10.0004C7.84972 10.5707 8.07637 11.1176 8.47939 11.5208Z" fill="#5E5E5E" stroke="#0F0F0F" stroke-width="0.3"/>
</svg>
