<svg width="20" height="20" viewBox="0 0 20 20" fill="none" xmlns="http://www.w3.org/2000/svg">
<path d="M12.0075 11.0178L12.0075 11.0179C11.4735 11.5519 10.7493 11.852 9.994 11.852C9.23869 11.852 8.51455 11.5519 7.98054 11.0179L7.98052 11.0178C7.44637 10.4839 7.14643 9.75952 7.14643 9.0044C7.14643 8.24906 7.44641 7.52476 7.98053 6.99077L7.98054 6.99076C8.51455 6.45674 9.23869 6.15665 9.994 6.15665C10.7493 6.15665 11.4734 6.45674 12.0075 6.99076L12.0075 6.99077C12.5416 7.52476 12.8416 8.2491 12.8416 9.0044C12.8416 9.75955 12.5416 10.4839 12.0075 11.0178ZM13.4081 3.0621L13.4829 2.93209L13.4081 3.0621C15.5275 4.28168 16.8351 6.53926 16.8387 8.98454C16.8386 10.8831 16.0782 12.5729 15.0801 13.9725C14.082 15.3722 12.852 16.4736 11.9281 17.1916C11.3749 17.6185 10.6956 17.85 9.99665 17.85C9.29786 17.85 8.61887 17.6186 8.06551 17.1918L8.06556 17.1917C7.14411 16.4773 5.91274 15.3796 4.91277 13.9833C3.9128 12.587 3.15001 10.9004 3.15001 9.00452L3.15001 9.00431C3.1466 6.55889 4.4479 4.29742 6.56374 3.07182L6.56375 3.07182C8.67946 1.84623 11.2886 1.84248 13.4081 3.0621ZM9.994 7.85512C9.68917 7.85512 9.39697 7.97618 9.18137 8.19178L9.28743 9.71081C9.47491 9.8983 9.72897 10.0035 9.994 10.0035C10.259 10.0035 10.5131 9.8983 10.7006 9.71081L10.8066 9.81688C10.8066 9.81688 10.8066 9.81688 10.8066 9.81688C11.0221 9.60143 11.1431 9.30903 11.1431 9.00442C11.1431 8.69963 11.0221 8.40725 10.8066 8.19179C10.591 7.97618 10.2988 7.85512 9.994 7.85512ZM13.6285 5.36103L13.6285 5.36102C12.6992 4.43423 11.4524 3.89875 10.1442 3.86064V3.85841H9.99424C8.62952 3.85841 7.32061 4.40043 6.35555 5.36548C5.3905 6.33053 4.8483 7.63944 4.8483 9.00435C4.8483 10.5596 5.52472 11.9682 6.38906 13.1351C7.25389 14.3026 8.31515 15.2395 9.10528 15.8547L9.10524 15.8548L9.10852 15.8572C9.36584 16.0466 9.6772 16.1488 9.99669 16.1488C10.3164 16.1488 10.6275 16.0466 10.885 15.8572L10.885 15.8573L10.8884 15.8546C11.6798 15.2367 12.7398 14.2973 13.603 13.1276C14.4658 11.9585 15.1402 10.5482 15.1402 8.99186L15.1402 8.99149C15.1368 7.62887 14.5932 6.32336 13.6285 5.36103Z" fill="#5E5E5E" stroke="#0F0F0F" stroke-width="0.3"/>
</svg>
