<svg width="20" height="20" viewBox="0 0 20 20" fill="none" xmlns="http://www.w3.org/2000/svg">
<path d="M13 17.85H7C6.24413 17.85 5.51922 17.5497 4.98475 17.0153C4.45027 16.4808 4.15 15.7559 4.15 15V5C4.15 4.24413 4.45027 3.51922 4.98475 2.98475C5.51922 2.45027 6.24413 2.15 7 2.15H13C13.7559 2.15 14.4808 2.45027 15.0153 2.98475C15.5497 3.51922 15.85 4.24413 15.85 5V15C15.85 15.7559 15.5497 16.4808 15.0153 17.0153C14.4808 17.5497 13.7559 17.85 13 17.85ZM6.18683 4.18683C5.97116 4.40249 5.85 4.695 5.85 5V15C5.85 15.305 5.97116 15.5975 6.18683 15.8132C6.40249 16.0288 6.695 16.15 7 16.15H13C13.305 16.15 13.5975 16.0288 13.8132 15.8132C14.0288 15.5975 14.15 15.305 14.15 15V5C14.15 4.695 14.0288 4.40249 13.8132 4.18683C13.5975 3.97116 13.305 3.85 13 3.85C12.695 3.85 12.4025 3.97116 12.1868 4.18683C11.9712 4.40249 11.85 4.695 11.85 5C11.85 5.22543 11.7604 5.44163 11.601 5.60104C11.4416 5.76045 11.2254 5.85 11 5.85H9C8.77457 5.85 8.55837 5.76045 8.39896 5.60104C8.23955 5.44163 8.15 5.22543 8.15 5C8.15 4.695 8.02884 4.40249 7.81317 4.18683C7.59751 3.97116 7.305 3.85 7 3.85C6.695 3.85 6.40249 3.97116 6.18683 4.18683Z" fill="#5E5E5E" stroke="#0F0F0F" stroke-width="0.3"/>
</svg>
