<svg width="27" height="32" viewBox="0 0 27 32" fill="none" xmlns="http://www.w3.org/2000/svg">
<path fill-rule="evenodd" clip-rule="evenodd" d="M25.3988 13.5958C26.0709 14.4621 26.4366 15.5267 26.4386 16.6244V27.0462C26.4386 28.36 25.9167 29.6199 24.9878 30.549C24.0588 31.478 22.7989 32 21.4852 32H4.95344C3.63969 32 2.37977 31.478 1.45084 30.549C0.521879 29.6199 0 28.36 0 27.0462V16.6235C0.00188263 15.5271 0.367651 14.4621 1.03983 13.5958C1.71212 12.7292 2.65304 12.1104 3.71516 11.8358L4.37604 11.665V8.84342C4.37604 6.49777 5.3078 4.24851 6.96619 2.59007C8.6246 0.931634 10.8739 0 13.2193 0C15.5647 0 17.814 0.931634 19.4724 2.59007C21.1308 4.24851 22.0626 6.49777 22.0626 8.84342V11.665L22.7234 11.8358C23.7856 12.1104 24.7265 12.7292 25.3988 13.5958ZM13.2193 2.12705C11.4381 2.12705 9.72987 2.83492 8.47035 4.09445C7.21087 5.35399 6.50328 7.06191 6.50328 8.84342V11.6693H19.9353V8.84342C19.9353 7.06191 19.2277 5.35399 17.9683 4.09445C16.7087 2.83492 15.0005 2.12705 13.2193 2.12705ZM2.12724 27.0462C2.12724 27.7962 2.42506 28.5149 2.95487 29.0446C3.48488 29.5747 4.20392 29.8725 4.95344 29.8725H21.4852C22.2347 29.8725 22.9537 29.5747 23.4837 29.0446C24.0135 28.5149 24.3114 27.7962 24.3114 27.0462V16.6231C24.3114 15.8731 24.0133 15.1544 23.4835 14.6243C22.9535 14.0946 22.2347 13.7968 21.4852 13.7968H4.95344C4.20392 13.7968 3.48488 14.0946 2.95487 14.6247C2.42506 15.1544 2.12724 15.8731 2.12724 16.6231V27.0462Z" fill="white"/>
</svg>
