<svg width="248" height="108" viewBox="0 0 248 108" fill="none" xmlns="http://www.w3.org/2000/svg">
<g filter="url(#filter0_d_50_5116)">
<rect x="4" width="240" height="90" fill="white"/>
<g clip-path="url(#clip0_50_5116)">
<path fill-rule="evenodd" clip-rule="evenodd" d="M66.0852 47.4194L66.2393 47.4811L66.8551 47.6661L67.5021 47.8506L68.1796 48.0047L68.8879 48.1281C69.35 48.2205 69.8426 48.251 70.3352 48.3127C70.7241 48.3374 71.1219 48.3506 71.5129 48.3506C72.1463 48.3506 72.7863 48.3154 73.4151 48.2508C74.4878 48.1162 75.5539 47.8882 76.587 47.5737C77.6557 47.228 78.7004 46.7934 79.6993 46.2801C80.7053 45.7379 81.6776 45.1179 82.5927 44.4331C83.0238 44.0632 83.4859 43.7246 83.9171 43.3549L84.5331 42.8004L85.1181 42.2151L85.6727 41.6301L86.2271 41.0448L87.2127 39.8434L87.6441 39.2582L88.0442 38.6728C88.2907 38.2726 88.568 37.9336 88.7835 37.5639L89.3995 36.5475L89.7384 35.9624C85.1118 35.274 80.7285 33.4179 77.0173 30.5704C73.2518 33.465 68.7876 35.3366 64.082 35.9908C64.1332 39.0008 64.5514 42.0108 65.3141 44.9243C65.5407 45.7868 65.7978 46.6187 66.0852 47.4194Z" fill="#C34249"/>
<path fill-rule="evenodd" clip-rule="evenodd" d="M76.8867 63.4965C80.6111 61.6737 83.845 58.987 86.2949 55.6744C88.6604 52.4055 90.4066 48.7193 91.4193 44.8297C92.3725 41.2542 92.8882 37.5634 92.9515 33.8668C87.0171 33.1542 81.425 30.7205 76.8867 26.8891V21.0012L77.5779 21.8533C77.6405 21.9455 83.9831 29.6459 96.1063 30.0774H96.9497L97.0123 30.909C97.0514 31.714 97.0752 32.5393 97.0752 33.3474C97.0752 37.5339 96.5109 41.7143 95.4182 45.7542C92.5749 56.3193 86.2632 63.9583 77.2022 67.8703L76.8867 68V63.4965Z" fill="#C34249"/>
<path fill-rule="evenodd" clip-rule="evenodd" d="M89.7082 36.8221L89.2154 37.962C89.0305 38.3624 88.8147 38.7937 88.5994 39.2249L88.2298 39.9027L87.8601 40.611L86.9979 42.0587L86.5052 42.7978L85.9815 43.5373L85.4272 44.2764L84.8419 45.0158C84.4414 45.5084 84.0104 45.9705 83.579 46.4632C82.6782 47.3959 81.704 48.2792 80.6841 49.0817C79.6563 49.8787 78.5562 50.6049 77.4183 51.2366C76.2975 51.8324 75.1146 52.3425 73.9091 52.7475C72.7541 53.1112 71.5659 53.3799 70.367 53.5472L69.2891 53.6399L69.3815 53.7937C71.1986 56.2888 74.2477 58.7221 76.9581 60.2314C79.6683 58.7529 82.7174 56.3195 84.5346 53.7937C86.4319 51.1261 87.8225 48.1238 88.6313 44.9529C89.3746 42.1439 89.7875 39.2401 89.8611 36.3313L89.7082 36.8221Z" fill="#212121"/>
<path fill-rule="evenodd" clip-rule="evenodd" d="M91.4218 44.8297C90.409 48.7193 88.6629 52.4055 86.2974 55.6744C83.8487 58.9852 80.6165 61.6708 76.8948 63.4935C73.226 61.6708 70.0401 58.9852 67.6262 55.6744C65.2945 52.4055 63.5733 48.7193 62.575 44.8297C61.6356 41.2542 61.1271 37.5634 61.0649 33.8668C66.9121 33.1545 72.4224 30.7223 76.8948 26.8933C81.4319 30.7223 87.022 33.1545 92.9539 33.8668C92.8907 37.5634 92.3749 41.2542 91.4218 44.8297ZM97.0148 30.909L96.9522 30.0774H96.1088C83.9855 29.6459 77.643 21.9455 77.5804 21.8533L76.9001 21.0146V21.0012L76.8948 21.0077L76.8892 21.0012V21.0149L76.2187 21.8533C76.1571 21.9455 69.9052 29.6459 57.9552 30.0774H57.1237L57.0621 30.909C57.0236 31.714 57 32.5393 57 33.3474C57 37.5339 57.5563 41.7143 58.6336 45.7542C61.4361 56.3193 67.6576 63.9583 76.5892 67.8703L76.8892 67.9952V68L76.8948 67.9976L76.9001 68V67.9956L77.2047 67.8703C86.2657 63.9583 92.5774 56.3193 95.4207 45.7542C96.5133 41.7143 97.0777 37.5339 97.0777 33.3474C97.0777 32.5393 97.0538 31.714 97.0148 30.909Z" fill="#212121"/>
<path d="M102.945 42.0169L104.143 41.5579C104.226 41.5268 104.295 41.4829 104.349 41.4253C104.403 41.3686 104.431 41.2833 104.431 41.1691V31.5566C104.431 31.4531 104.402 31.3741 104.345 31.3196C104.288 31.2653 104.221 31.2221 104.143 31.191L102.945 30.7328V30.0634H115.433V30.7328L114.251 31.191C114.169 31.2221 114.096 31.2653 114.034 31.3196C113.971 31.3741 113.94 31.4531 113.94 31.5566V41.1691C113.94 41.2833 113.97 41.3672 114.03 41.4219C114.089 41.4761 114.163 41.5214 114.251 41.5579L115.433 42.0169V42.6855H109.874V42.0169L111.056 41.5579C111.149 41.5214 111.224 41.4761 111.281 41.4219C111.338 41.3672 111.367 41.2833 111.367 41.1691V31.3154H107.005V41.1691C107.005 41.2833 107.033 41.3672 107.09 41.4219C107.147 41.4761 107.222 41.5214 107.316 41.5579L108.505 42.0169V42.6855H102.945V42.0169Z" fill="#212121"/>
<path d="M121.792 41.481C122.144 41.481 122.446 41.4074 122.697 41.2593C122.949 41.1119 123.156 40.9099 123.319 40.6529C123.483 40.3961 123.603 40.0979 123.681 39.7585C123.758 39.4193 123.798 39.0548 123.798 38.6661C123.798 38.2254 123.76 37.8158 123.685 37.4371C123.61 37.0594 123.492 36.7326 123.331 36.4577C123.171 36.183 122.963 35.9675 122.709 35.8118C122.455 35.6565 122.152 35.5787 121.799 35.5787C121.696 35.5787 121.576 35.5903 121.441 35.6138C121.307 35.6368 121.168 35.6788 121.026 35.7382C120.883 35.7978 120.746 35.8768 120.613 35.9755C120.482 36.0742 120.369 36.1985 120.275 36.3488V41.1235C120.369 41.191 120.484 41.2479 120.621 41.2946C120.759 41.3412 120.899 41.3777 121.041 41.4033C121.184 41.4291 121.322 41.4485 121.457 41.4616C121.591 41.4744 121.703 41.481 121.792 41.481ZM116.551 45.8747L117.523 45.4783C117.616 45.4364 117.691 45.3913 117.748 45.3418C117.805 45.2926 117.834 45.2163 117.834 45.1126V36.0453C117.834 35.9362 117.801 35.8512 117.736 35.7889C117.671 35.7269 117.59 35.6774 117.492 35.641L116.59 35.2596V34.6066L120.143 34.1639V35.5476H120.244C120.472 35.211 120.72 34.9454 120.986 34.7507C121.254 34.5556 121.515 34.4113 121.772 34.315C122.029 34.2193 122.268 34.1597 122.491 34.1361C122.714 34.1132 122.898 34.1015 123.044 34.1015C123.566 34.1015 124.033 34.2023 124.443 34.4045C124.852 34.6066 125.2 34.8878 125.485 35.248C125.77 35.6085 125.987 36.0363 126.134 36.531C126.282 37.0269 126.356 37.5615 126.356 38.1375C126.356 38.7804 126.268 39.3841 126.091 39.9491C125.915 40.5143 125.656 41.0058 125.314 41.4229C124.972 41.8401 124.556 42.1721 124.066 42.4181C123.576 42.6642 123.02 42.7879 122.398 42.7879C122.149 42.7879 121.914 42.7628 121.694 42.7134C121.474 42.6642 121.272 42.5986 121.088 42.5154C120.903 42.4324 120.736 42.3363 120.586 42.2275C120.435 42.1186 120.314 42.005 120.22 41.8853L120.275 42.4452V45.1048C120.275 45.2087 120.305 45.2879 120.365 45.3418C120.424 45.3966 120.5 45.4393 120.594 45.4705L121.776 45.8747V46.5283H116.551V45.8747Z" fill="#212121"/>
<path d="M131.475 41.4112C131.599 41.4112 131.731 41.3984 131.871 41.3728C132.011 41.3471 132.149 41.3024 132.283 41.2404C132.418 41.178 132.546 41.0997 132.668 41.0036C132.79 40.9077 132.895 40.7894 132.983 40.6494V38.5267C132.579 38.5267 132.21 38.5523 131.875 38.6045C131.541 38.6566 131.254 38.7444 131.016 38.8688C130.777 38.9932 130.593 39.1581 130.464 39.3623C130.334 39.567 130.269 39.8226 130.269 40.1282C130.269 40.3778 130.307 40.5846 130.382 40.7508C130.457 40.9165 130.554 41.049 130.67 41.1471C130.787 41.2457 130.916 41.3146 131.058 41.3532C131.201 41.3924 131.34 41.4112 131.475 41.4112ZM130.161 42.8506C129.777 42.8506 129.435 42.7817 129.134 42.6444C128.834 42.5071 128.58 42.3267 128.372 42.1035C128.165 41.8812 128.005 41.6271 127.894 41.3417C127.783 41.0565 127.727 40.7611 127.727 40.4555C127.727 40.0972 127.786 39.776 127.906 39.4908C128.025 39.2062 128.187 38.9532 128.392 38.7328C128.597 38.5126 128.832 38.3246 129.1 38.1691C129.366 38.0137 129.645 37.8849 129.935 37.7838C130.226 37.6831 130.519 37.6064 130.818 37.5546C131.116 37.5024 131.397 37.4767 131.661 37.4767C131.718 37.4767 131.809 37.4821 131.933 37.4925C132.058 37.5024 132.189 37.5146 132.326 37.5274C132.464 37.5402 132.594 37.5534 132.718 37.5662C132.843 37.579 132.931 37.5885 132.983 37.5933L132.991 36.8393C132.991 36.5694 132.97 36.3336 132.929 36.1314C132.887 35.9292 132.819 35.7617 132.723 35.6299C132.627 35.4975 132.501 35.3994 132.345 35.3347C132.19 35.2697 131.998 35.2372 131.77 35.2372C131.552 35.2372 131.311 35.2953 131.047 35.4122C130.783 35.5285 130.518 35.6683 130.254 35.832C129.99 35.9957 129.741 36.1612 129.508 36.3297C129.274 36.4979 129.083 36.629 128.932 36.7224H128.419L128.349 34.778C128.608 34.6957 128.868 34.6125 129.13 34.5294C129.392 34.4468 129.668 34.3725 129.958 34.3075C130.248 34.2434 130.561 34.19 130.895 34.1486C131.229 34.1069 131.599 34.0866 132.004 34.0866C132.433 34.0866 132.855 34.125 133.267 34.2029C133.679 34.2807 134.045 34.4193 134.367 34.6185C134.688 34.8186 134.948 35.0932 135.145 35.4432C135.342 35.7927 135.44 36.2402 135.44 36.7847L135.433 40.8752C135.433 40.9739 135.449 41.0618 135.483 41.1396C135.516 41.2173 135.561 41.2863 135.615 41.3458C135.67 41.4053 135.734 41.4506 135.81 41.4816C135.885 41.5128 135.967 41.5283 136.055 41.5283C136.158 41.5283 136.278 41.5169 136.412 41.4931C136.547 41.47 136.671 41.4424 136.785 41.4112H137.05V42.1658C136.951 42.2334 136.82 42.3057 136.657 42.3835C136.494 42.4612 136.316 42.5355 136.125 42.6053C135.933 42.6755 135.738 42.7336 135.541 42.7802C135.344 42.8269 135.166 42.8506 135.005 42.8506C134.694 42.8506 134.421 42.8216 134.185 42.7647C133.949 42.708 133.752 42.6222 133.593 42.5078C133.435 42.3942 133.316 42.2475 133.236 42.0691C133.155 41.8899 133.115 41.679 133.115 41.435H133.014C132.812 41.7412 132.589 41.9874 132.345 42.1739C132.102 42.3605 131.853 42.5046 131.599 42.6053C131.345 42.7066 131.094 42.7728 130.845 42.804C130.596 42.835 130.368 42.8506 130.161 42.8506Z" fill="#212121"/>
<path d="M142.505 41.5971C143.007 41.5971 143.389 41.5058 143.651 41.3246C143.914 41.1435 144.044 40.8271 144.044 40.3762C144.044 39.8624 143.909 39.4865 143.64 39.2485C143.37 39.0098 142.924 38.8902 142.302 38.8902H141.369V41.5971H142.505ZM141.906 37.9189C142.258 37.8876 142.542 37.8384 142.757 37.7707C142.973 37.703 143.139 37.6195 143.259 37.5178C143.378 37.4174 143.458 37.2963 143.5 37.1562C143.541 37.0163 143.562 36.858 143.562 36.6824C143.562 36.454 143.536 36.2584 143.484 36.095C143.432 35.9319 143.349 35.7995 143.235 35.6978C143.121 35.5974 142.976 35.5237 142.8 35.4769C142.624 35.4304 142.414 35.4065 142.17 35.4065H141.369V37.9654L141.906 37.9189ZM137.699 42.0325L138.64 41.6511C138.728 41.6099 138.8 41.5633 138.858 41.5113C138.915 41.4591 138.943 41.3787 138.943 41.2698V35.7333C138.943 35.6296 138.916 35.5505 138.861 35.496C138.807 35.4417 138.733 35.3964 138.64 35.36L137.699 34.9787V34.3182H143.103C143.715 34.3182 144.22 34.3662 144.62 34.4616C145.019 34.5576 145.335 34.6873 145.568 34.851C145.801 35.0138 145.965 35.2017 146.058 35.4149C146.152 35.6272 146.198 35.8529 146.198 36.0908C146.198 36.3553 146.147 36.6004 146.046 36.8258C145.945 37.0512 145.805 37.2537 145.626 37.4326C145.448 37.6112 145.234 37.7653 144.985 37.895C144.736 38.025 144.461 38.1258 144.161 38.1986L144.207 38.2839C144.56 38.3102 144.887 38.3759 145.191 38.4827C145.494 38.5888 145.757 38.7313 145.98 38.9099C146.203 39.089 146.378 39.2986 146.505 39.54C146.632 39.7812 146.696 40.0469 146.696 40.3369C146.696 40.6588 146.65 40.94 146.56 41.1806C146.469 41.4219 146.343 41.6296 146.183 41.8026C146.022 41.9763 145.832 42.1204 145.615 42.2346C145.397 42.3488 145.158 42.438 144.899 42.503C144.64 42.5679 144.368 42.6145 144.083 42.6429C143.798 42.6712 143.51 42.6855 143.22 42.6855H137.699V42.0325Z" fill="#212121"/>
<path d="M152.678 41.7763C153.04 41.7763 153.338 41.6803 153.572 41.4889C153.806 41.2969 153.991 41.0509 154.128 40.75C154.265 40.4493 154.36 40.1118 154.412 39.7387C154.463 39.3656 154.49 38.9952 154.49 38.6266C154.49 38.1865 154.456 37.7601 154.388 37.3477C154.321 36.9354 154.212 36.5716 154.062 36.2552C153.912 35.9389 153.713 35.6846 153.467 35.4934C153.221 35.3014 152.919 35.2054 152.561 35.2054C152.198 35.2054 151.901 35.2999 151.671 35.4893C151.44 35.6786 151.255 35.9219 151.114 36.2198C150.975 36.5179 150.878 36.8513 150.827 37.2192C150.775 37.5877 150.75 37.9533 150.75 38.3157C150.75 38.7199 150.778 39.1276 150.835 39.5367C150.892 39.9463 150.994 40.3182 151.142 40.6527C151.29 40.9874 151.488 41.2577 151.737 41.4654C151.986 41.6728 152.299 41.7763 152.678 41.7763ZM152.569 42.8965C151.9 42.8965 151.292 42.7991 150.745 42.6045C150.198 42.4104 149.731 42.1252 149.342 41.7493C148.953 41.3734 148.651 40.913 148.436 40.3687C148.221 39.8246 148.113 39.2054 148.113 38.5103C148.113 37.8674 148.219 37.2738 148.428 36.7299C148.639 36.1849 148.94 35.7182 149.334 35.3297C149.728 34.9409 150.206 34.6362 150.769 34.4156C151.332 34.1961 151.962 34.0858 152.662 34.0858C153.424 34.0858 154.085 34.2021 154.645 34.4352C155.205 34.6684 155.668 34.9851 156.033 35.3843C156.398 35.7832 156.671 36.2484 156.853 36.7797C157.035 37.3116 157.125 37.8776 157.125 38.4793C157.125 39.1121 157.02 39.6988 156.811 40.2404C156.601 40.7825 156.3 41.249 155.908 41.6403C155.517 42.0318 155.04 42.3387 154.478 42.5618C153.915 42.785 153.279 42.8965 152.569 42.8965Z" fill="#212121"/>
<path d="M163.274 41.5971C163.777 41.5971 164.159 41.5058 164.421 41.3246C164.683 41.1435 164.813 40.8271 164.813 40.3762C164.813 39.8624 164.679 39.4865 164.409 39.2485C164.14 39.0098 163.694 38.8902 163.072 38.8902H162.139V41.5971H163.274ZM162.675 37.9189C163.027 37.8876 163.311 37.8384 163.527 37.7707C163.742 37.703 163.909 37.6195 164.029 37.5178C164.148 37.4174 164.228 37.2963 164.269 37.1562C164.311 37.0163 164.332 36.858 164.332 36.6824C164.332 36.454 164.306 36.2584 164.254 36.095C164.202 35.9319 164.119 35.7995 164.005 35.6978C163.891 35.5974 163.745 35.5237 163.57 35.4769C163.393 35.4304 163.183 35.4065 162.94 35.4065H162.139V37.9654L162.675 37.9189ZM158.469 42.0325L159.41 41.6511C159.498 41.6099 159.57 41.5633 159.628 41.5113C159.684 41.4591 159.713 41.3787 159.713 41.2698V35.7333C159.713 35.6296 159.686 35.5505 159.631 35.496C159.577 35.4417 159.503 35.3964 159.41 35.36L158.469 34.9787V34.3182H163.872C164.484 34.3182 164.99 34.3662 165.389 34.4616C165.788 34.5576 166.104 34.6873 166.338 34.851C166.571 35.0138 166.734 35.2017 166.828 35.4149C166.921 35.6272 166.968 35.8529 166.968 36.0908C166.968 36.3553 166.917 36.6004 166.816 36.8258C166.715 37.0512 166.575 37.2537 166.396 37.4326C166.217 37.6112 166.003 37.7653 165.755 37.895C165.506 38.025 165.231 38.1258 164.93 38.1986L164.977 38.2839C165.329 38.3102 165.657 38.3759 165.961 38.4827C166.264 38.5888 166.527 38.7313 166.75 38.9099C166.973 39.089 167.147 39.2986 167.274 39.54C167.402 39.7812 167.465 40.0469 167.465 40.3369C167.465 40.6588 167.42 40.94 167.329 41.1806C167.238 41.4219 167.112 41.6296 166.952 41.8026C166.791 41.9763 166.602 42.1204 166.384 42.2346C166.167 42.3488 165.928 42.438 165.669 42.503C165.41 42.5679 165.138 42.6145 164.853 42.6429C164.567 42.6712 164.279 42.6855 163.99 42.6855H158.469V42.0325Z" fill="#212121"/>
<path d="M173.448 41.7763C173.81 41.7763 174.108 41.6803 174.341 41.4889C174.575 41.2969 174.76 41.0509 174.898 40.75C175.035 40.4493 175.129 40.1118 175.181 39.7387C175.233 39.3656 175.259 38.9952 175.259 38.6266C175.259 38.1865 175.225 37.7601 175.158 37.3477C175.091 36.9354 174.982 36.5716 174.831 36.2552C174.681 35.9389 174.482 35.6846 174.236 35.4934C173.99 35.3014 173.688 35.2054 173.331 35.2054C172.968 35.2054 172.671 35.2999 172.44 35.4893C172.21 35.6786 172.025 35.9219 171.884 36.2198C171.744 36.5179 171.648 36.8513 171.597 37.2192C171.545 37.5877 171.519 37.9533 171.519 38.3157C171.519 38.7199 171.548 39.1276 171.604 39.5367C171.662 39.9463 171.764 40.3182 171.912 40.6527C172.059 40.9874 172.258 41.2577 172.507 41.4654C172.755 41.6728 173.069 41.7763 173.448 41.7763ZM173.339 42.8965C172.669 42.8965 172.062 42.7991 171.515 42.6045C170.968 42.4104 170.5 42.1252 170.112 41.7493C169.723 41.3734 169.421 40.913 169.206 40.3687C168.99 39.8246 168.883 39.2054 168.883 38.5103C168.883 37.8674 168.988 37.2738 169.198 36.7299C169.408 36.1849 169.71 35.7182 170.104 35.3297C170.498 34.9409 170.976 34.6362 171.539 34.4156C172.101 34.1961 172.732 34.0858 173.432 34.0858C174.194 34.0858 174.855 34.2021 175.415 34.4352C175.974 34.6684 176.437 34.9851 176.802 35.3843C177.168 35.7832 177.441 36.2484 177.623 36.7797C177.804 37.3116 177.895 37.8776 177.895 38.4793C177.895 39.1121 177.79 39.6988 177.58 40.2404C177.37 40.7825 177.069 41.249 176.678 41.6403C176.287 42.0318 175.81 42.3387 175.248 42.5618C174.684 42.785 174.048 42.8965 173.339 42.8965Z" fill="#212121"/>
<path d="M184.673 32.7544C184.129 32.7544 183.665 32.6903 183.282 32.5603C182.898 32.4306 182.582 32.2723 182.333 32.086C182.084 31.8993 181.904 31.6971 181.793 31.4795C181.681 31.2618 181.625 31.0597 181.625 30.873V30.0638H183.531V30.5072L183.484 31.4246C183.546 31.4977 183.621 31.56 183.709 31.6119C183.797 31.6632 183.893 31.7067 183.997 31.7395C184.101 31.7735 184.209 31.7997 184.324 31.8173C184.437 31.8358 184.552 31.8453 184.665 31.8453C184.79 31.8453 184.912 31.8343 185.031 31.814C185.15 31.7932 185.262 31.7648 185.365 31.7282C185.47 31.6924 185.564 31.6491 185.649 31.5996C185.735 31.5505 185.806 31.4923 185.863 31.4246L185.816 30.5072V30.0638H187.722V30.873C187.722 31.0597 187.666 31.2618 187.554 31.4795C187.443 31.6971 187.266 31.8993 187.022 32.086C186.778 32.2723 186.463 32.4306 186.077 32.5603C185.69 32.6903 185.223 32.7544 184.673 32.7544ZM179.238 41.962L180.179 41.5813C180.267 41.5449 180.34 41.4996 180.397 41.4448C180.454 41.3907 180.482 41.3116 180.482 41.2074V35.6708C180.482 35.562 180.454 35.4815 180.397 35.4302C180.34 35.378 180.267 35.3315 180.179 35.2901L179.238 34.9087V34.2557H183.896V34.9087L183.204 35.2901C183.11 35.3416 183.034 35.3923 182.975 35.4415C182.915 35.491 182.885 35.5674 182.885 35.6708V38.984L182.768 40.0724L182.885 40.1109L186.361 34.7847V34.2557H190V34.9087L189.067 35.2901C188.974 35.3315 188.898 35.378 188.841 35.4302C188.784 35.4815 188.756 35.562 188.756 35.6708V41.2074C188.756 41.3116 188.784 41.3907 188.841 41.4448C188.898 41.4996 188.974 41.5449 189.067 41.5813L190 41.962V42.623H185.35V41.962L186.042 41.5813C186.135 41.5293 186.21 41.4786 186.268 41.4292C186.325 41.3798 186.353 41.3062 186.353 41.2074V37.9187L186.47 36.845L186.361 36.783L182.885 42.1256V42.623H179.238V41.962Z" fill="#212121"/>
<path d="M106.312 61.5713C105.913 61.5713 105.559 61.5531 105.25 61.5167C104.942 61.4803 104.653 61.4287 104.383 61.3611C104.114 61.2936 103.855 61.2123 103.606 61.1166C103.357 61.0206 103.095 60.9129 102.82 60.7934L102.875 59.3704H103.38C103.525 59.4591 103.698 59.5568 103.897 59.6657C104.097 59.7745 104.314 59.8759 104.547 59.9692C104.78 60.0625 105.027 60.1418 105.289 60.2066C105.551 60.2716 105.822 60.3041 106.102 60.3041C106.454 60.3041 106.765 60.2418 107.035 60.1168C107.305 59.9925 107.534 59.8165 107.723 59.5879C107.912 59.3601 108.058 59.0789 108.163 58.7443C108.266 58.4104 108.331 58.0359 108.356 57.6206H104.726V56.3763H108.365C108.349 55.9409 108.282 55.5757 108.163 55.2802C108.043 54.9841 107.894 54.745 107.715 54.5605C107.536 54.3765 107.337 54.2446 107.117 54.1642C106.896 54.0837 106.675 54.0437 106.452 54.0437C106.193 54.0437 105.93 54.081 105.663 54.1559C105.396 54.2316 105.142 54.3237 104.9 54.4325C104.659 54.5414 104.436 54.6561 104.232 54.7787C104.027 54.9004 103.852 55.005 103.707 55.093H103.217L103.155 53.3982C103.429 53.3207 103.699 53.244 103.963 53.1683C104.228 53.0935 104.5 53.0277 104.78 52.9703C105.06 52.9134 105.359 52.8696 105.678 52.8383C105.997 52.8075 106.348 52.7918 106.732 52.7918C107.11 52.7918 107.476 52.8264 107.828 52.8967C108.181 52.9661 108.513 53.075 108.824 53.2228C109.134 53.3713 109.418 53.5581 109.675 53.7828C109.931 54.0086 110.152 54.2715 110.336 54.5728C110.52 54.8736 110.662 55.2125 110.763 55.5912C110.864 55.9699 110.915 56.387 110.915 56.8432C110.915 57.3823 110.856 57.8734 110.736 58.3167C110.617 58.7599 110.45 59.1567 110.234 59.5061C110.019 59.8565 109.767 60.1613 109.476 60.4201C109.186 60.6797 108.87 60.8932 108.528 61.062C108.186 61.2301 107.827 61.3572 107.451 61.443C107.075 61.5283 106.696 61.5713 106.312 61.5713Z" fill="#212121"/>
<path d="M119.703 61.4784C119.526 61.4832 119.369 61.4719 119.232 61.4433C119.095 61.415 118.975 61.3669 118.87 61.2993C118.767 61.2315 118.674 61.1439 118.591 61.035C118.508 60.9259 118.428 60.7963 118.35 60.6462L116.841 57.7693L115.931 57.5973V59.9614C115.931 60.06 115.959 60.1352 116.013 60.1871C116.068 60.2393 116.145 60.2915 116.242 60.3424L116.935 60.724V61.3771H112.262V60.724L113.203 60.3424C113.291 60.3016 113.363 60.2544 113.42 60.2028C113.477 60.1506 113.506 60.0702 113.506 59.9614V54.4247C113.506 54.3212 113.477 54.2419 113.42 54.1873C113.363 54.133 113.291 54.0881 113.203 54.0517L112.262 53.6701V53.0099H116.935V53.6701L116.242 54.0517C116.154 54.0982 116.081 54.1447 116.021 54.1915C115.961 54.2381 115.931 54.3159 115.931 54.4247V56.7886H116.491C116.704 56.7886 116.899 56.7617 117.079 56.7068C117.258 56.6527 117.414 56.5527 117.549 56.4075C117.704 56.2364 117.832 56.0241 117.93 55.7697C118.028 55.5166 118.12 55.2554 118.206 54.9883C118.291 54.7213 118.379 54.4652 118.466 54.2184C118.555 53.9724 118.664 53.7691 118.793 53.608C118.907 53.4789 119.019 53.3673 119.127 53.2741C119.236 53.1808 119.352 53.1044 119.474 53.0441C119.595 52.9849 119.725 52.9407 119.862 52.9121C119.999 52.8841 120.156 52.8698 120.332 52.8698C120.509 52.8698 120.693 52.8799 120.885 52.9008C121.076 52.9214 121.268 52.9422 121.46 52.9631L121.374 54.8601H120.947C120.848 54.8499 120.748 54.8398 120.648 54.8287C120.546 54.8188 120.451 54.8114 120.364 54.806C120.276 54.8007 120.195 54.7959 120.122 54.7903C120.05 54.7852 119.991 54.7822 119.944 54.7822C119.783 54.7822 119.659 54.8398 119.571 54.9534C119.482 55.0676 119.402 55.2116 119.33 55.3851C119.257 55.5589 119.177 55.7467 119.089 55.9492C119 56.1514 118.876 56.3431 118.715 56.5244L120.799 60.0547C120.857 60.1533 120.934 60.2297 121.032 60.2846C121.131 60.3385 121.234 60.3865 121.343 60.4286L122.059 60.724V61.3771L119.703 61.4784Z" fill="#212121"/>
<path d="M126.582 61.5625C125.939 61.5625 125.367 61.4578 124.863 61.2476C124.361 61.038 123.936 60.7431 123.589 60.3653C123.242 59.9867 122.977 59.5379 122.795 59.0201C122.614 58.5018 122.523 57.9335 122.523 57.3165C122.523 56.8762 122.582 56.4585 122.699 56.0646C122.815 55.671 122.98 55.3066 123.196 54.9721C123.411 54.6382 123.664 54.3358 123.954 54.0663C124.245 53.7964 124.563 53.5686 124.911 53.382C125.258 53.1957 125.628 53.0512 126.022 52.9499C126.416 52.8492 126.818 52.7987 127.227 52.7987C127.549 52.7987 127.839 52.8223 128.099 52.8689C128.358 52.9153 128.591 52.9723 128.799 53.0399C129.005 53.1068 129.187 53.1756 129.343 53.2454C129.498 53.3157 129.628 53.3765 129.731 53.4287L129.654 55.4507H129.14C128.938 55.3153 128.719 55.1695 128.483 55.0111C128.248 54.8528 127.873 54.5913 127.61 54.4866C127.187 54.3179 125.534 53.6211 125.112 56.0998C125.067 56.3651 125.058 56.6609 125.058 56.9826C125.058 57.4645 125.111 57.8897 125.218 58.2573C125.324 58.6262 125.482 58.9356 125.692 59.1869C125.902 59.4387 126.164 59.6306 126.477 59.7624C126.791 59.8949 127.158 59.9605 127.578 59.9605C127.774 59.9605 127.969 59.9402 128.161 59.8981C128.353 59.8569 128.535 59.8045 128.709 59.7395C128.882 59.6745 129.047 59.5994 129.203 59.5134C129.358 59.4276 129.501 59.3438 129.631 59.2606H130.004V60.2485C129.796 60.4039 129.572 60.561 129.331 60.7189C129.09 60.877 128.83 61.0183 128.55 61.143C128.27 61.2673 127.966 61.3681 127.64 61.4462C127.313 61.5239 126.961 61.5625 126.582 61.5625Z" fill="#212121"/>
<path d="M131.012 60.7239L131.953 60.3422C132.04 60.3015 132.113 60.2543 132.17 60.2027C132.227 60.1505 132.256 60.07 132.256 59.9613V54.4245C132.256 54.3211 132.227 54.2418 132.17 54.1872C132.113 54.1329 132.04 54.0879 131.953 54.0516L131.012 53.6699V53.0098H141.283V53.6699L140.342 54.0516C140.254 54.0879 140.182 54.1329 140.124 54.1872C140.067 54.2418 140.039 54.3211 140.039 54.4245V59.9613C140.039 60.07 140.067 60.1505 140.124 60.2027C140.182 60.2543 140.254 60.3015 140.342 60.3422L141.283 60.7239V61.377H136.595V60.7239L137.287 60.3422C137.38 60.2913 137.455 60.2391 137.512 60.187C137.569 60.135 137.597 60.0599 137.597 59.9613V54.1839H134.697V59.9613C134.697 60.0653 134.725 60.1419 134.783 60.1912C134.84 60.2407 134.915 60.2913 135.008 60.3422L135.7 60.7239V61.377H131.012V60.7239Z" fill="#212121"/>
<path d="M148.34 56.1191C148.34 55.7718 148.314 55.4593 148.262 55.1823C148.21 54.905 148.125 54.6692 148.005 54.4744C147.886 54.2798 147.731 54.1309 147.539 54.0277C147.347 53.9234 147.112 53.8712 146.831 53.8712C146.588 53.8712 146.365 53.9207 146.162 54.0195C145.96 54.1181 145.785 54.2636 145.638 54.4547C145.49 54.6468 145.371 54.883 145.28 55.1626C145.189 55.4426 145.134 55.7616 145.113 56.1191H148.34ZM146.964 61.5625C146.336 61.5625 145.756 61.4694 145.222 61.2827C144.688 61.0961 144.228 60.8203 143.842 60.4545C143.455 60.0889 143.152 59.6366 142.932 59.0979C142.712 58.5585 142.602 57.9392 142.602 57.2387C142.602 56.6168 142.706 56.0333 142.916 55.4891C143.126 54.945 143.421 54.4717 143.803 54.0701C144.184 53.6688 144.643 53.3522 145.183 53.1211C145.722 52.8903 146.323 52.7756 146.987 52.7756C147.598 52.7756 148.143 52.8647 148.619 53.0432C149.097 53.2221 149.499 53.4637 149.829 53.7666C150.158 54.0701 150.409 54.4222 150.583 54.8245C150.757 55.2261 150.843 55.6471 150.843 56.0881C150.843 56.1403 150.842 56.22 150.84 56.3288C150.837 56.4385 150.832 56.5518 150.824 56.6716C150.816 56.7903 150.807 56.9033 150.797 57.0098C150.787 57.1156 150.778 57.1902 150.774 57.2313H145.105C145.105 58.1174 145.341 58.7943 145.813 59.2606C146.284 59.7273 146.989 59.9605 147.927 59.9605C148.218 59.9605 148.488 59.939 148.737 59.8949C148.985 59.851 149.214 59.7973 149.425 59.7353C149.634 59.673 149.825 59.6029 149.996 59.5251C150.167 59.4473 150.319 59.3721 150.455 59.2999H150.828V60.233C150.605 60.3936 150.352 60.5517 150.07 60.7074C149.787 60.8626 149.482 61.0042 149.152 61.1313C148.823 61.2586 148.474 61.3618 148.107 61.4423C147.738 61.5225 147.358 61.5625 146.964 61.5625Z" fill="#212121"/>
<path d="M157.116 60.1705C157.468 60.1705 157.77 60.0968 158.021 59.9486C158.273 59.8013 158.48 59.5992 158.643 59.3425C158.807 59.0857 158.927 58.7875 159.005 58.448C159.083 58.1086 159.122 57.7439 159.122 57.3555C159.122 56.9148 159.084 56.5051 159.009 56.1264C158.934 55.7487 158.816 55.4218 158.655 55.147C158.494 54.8727 158.287 54.6568 158.033 54.5014C157.779 54.3458 157.476 54.2679 157.123 54.2679C157.02 54.2679 156.9 54.2796 156.765 54.3031C156.631 54.3264 156.492 54.3681 156.35 54.4274C156.207 54.487 156.07 54.5661 155.937 54.6648C155.806 54.7636 155.693 54.8878 155.6 55.0381V59.8129C155.693 59.8806 155.808 59.9373 155.945 59.9838C156.083 60.0302 156.223 60.067 156.365 60.0926C156.508 60.1183 156.647 60.138 156.781 60.151C156.916 60.1639 157.027 60.1705 157.116 60.1705ZM151.875 64.5643L152.847 64.1677C152.94 64.126 153.015 64.0805 153.072 64.031C153.129 63.9819 153.158 63.9056 153.158 63.8021V54.7345C153.158 54.6254 153.125 54.5405 153.061 54.4782C152.996 54.4161 152.914 54.3666 152.816 54.3303L151.913 53.9489V53.2962L155.467 52.8532V54.237H155.569C155.796 53.9002 156.043 53.6346 156.311 53.44C156.577 53.2452 156.839 53.1006 157.096 53.0046C157.353 52.9086 157.592 52.849 157.815 52.8255C158.038 52.8024 158.222 52.7909 158.367 52.7909C158.891 52.7909 159.357 52.8916 159.767 53.0938C160.177 53.2962 160.524 53.5771 160.809 53.9375C161.094 54.2978 161.311 54.7256 161.458 55.2206C161.606 55.7162 161.68 56.251 161.68 56.8268C161.68 57.47 161.592 58.0734 161.415 58.6384C161.239 59.2038 160.98 59.6952 160.638 60.1122C160.296 60.5294 159.88 60.8616 159.389 61.1076C158.9 61.3536 158.344 61.4773 157.722 61.4773C157.473 61.4773 157.239 61.4523 157.018 61.4028C156.798 61.3536 156.596 61.2879 156.412 61.2048C156.227 61.122 156.06 61.0256 155.911 60.9167C155.76 60.8079 155.638 60.6944 155.545 60.5748L155.6 61.1347V63.794C155.6 63.8982 155.629 63.9771 155.689 64.031C155.748 64.086 155.825 64.1286 155.918 64.1596L157.1 64.5643V65.2178H151.875V64.5643Z" fill="#212121"/>
<path d="M164.764 60.7239L165.728 60.3422C165.822 60.3015 165.896 60.2543 165.954 60.2027C166.011 60.1505 166.039 60.07 166.039 59.9613V54.1682H164.616C164.487 54.1682 164.393 54.2009 164.333 54.2651C164.273 54.3298 164.23 54.4091 164.205 54.5024L163.87 55.9253H162.789V53.0098H171.716V55.9253H170.642L170.301 54.5024C170.275 54.4091 170.231 54.3298 170.172 54.2651C170.113 54.2009 170.018 54.1682 169.889 54.1682H168.474V59.9613C168.474 60.07 168.5 60.1505 168.555 60.2027C168.609 60.2543 168.684 60.3015 168.777 60.3422L169.748 60.7239V61.377H164.764V60.7239Z" fill="#212121"/>
</g>
<rect x="124" y="80" width="14" height="14" transform="rotate(45 124 80)" fill="white"/>
</g>
<defs>
<filter id="filter0_d_50_5116" x="0" y="0" width="248" height="107.799" filterUnits="userSpaceOnUse" color-interpolation-filters="sRGB">
<feFlood flood-opacity="0" result="BackgroundImageFix"/>
<feColorMatrix in="SourceAlpha" type="matrix" values="0 0 0 0 0 0 0 0 0 0 0 0 0 0 0 0 0 0 127 0" result="hardAlpha"/>
<feOffset dy="4"/>
<feGaussianBlur stdDeviation="2"/>
<feComposite in2="hardAlpha" operator="out"/>
<feColorMatrix type="matrix" values="0 0 0 0 0 0 0 0 0 0 0 0 0 0 0 0 0 0 0.25 0"/>
<feBlend mode="normal" in2="BackgroundImageFix" result="effect1_dropShadow_50_5116"/>
<feBlend mode="normal" in="SourceGraphic" in2="effect1_dropShadow_50_5116" result="shape"/>
</filter>
<clipPath id="clip0_50_5116">
<rect width="133" height="47" fill="white" transform="translate(57 21)"/>
</clipPath>
</defs>
</svg>
