<svg width="32" height="32" viewBox="0 0 32 32" fill="none" xmlns="http://www.w3.org/2000/svg">
<path fill-rule="evenodd" clip-rule="evenodd" d="M28.6094 25.7745L28.0281 26.5182L31.6872 30.1771C31.7865 30.2766 31.8651 30.3943 31.9188 30.524C31.9724 30.6531 32 30.7922 32 30.9323C32 31.0724 31.9724 31.2115 31.9188 31.3406C31.8943 31.4 31.8646 31.4568 31.8302 31.5104C31.7891 31.574 31.7411 31.6333 31.6872 31.6875C31.588 31.7865 31.4703 31.8651 31.3409 31.9188C31.2115 31.9724 31.0724 32 30.9323 32C30.7922 32 30.6531 31.9724 30.5237 31.9188C30.3943 31.8651 30.2766 31.7865 30.1773 31.6875L26.5159 28.026L25.7719 28.6115C23.3964 30.4797 20.5357 31.6292 17.5279 31.924L17.5052 31.926L17.4826 31.9292C17.0036 31.9969 16.544 31.999 16.0036 31.999C14.2534 31.987 12.5172 31.6849 10.8661 31.1047L10.8484 31.0984L10.8305 31.0927C10.0807 30.8583 9.27761 30.8573 8.52708 31.0885L6.10625 31.7844C5.08255 32.0781 3.99036 32.0234 3.00156 31.6286C2.0151 31.2344 1.18724 30.5245 0.647656 29.6099C0.479167 29.3115 0.342448 28.9979 0.239323 28.6729C0.142448 28.3677 0.0752604 28.0531 0.0388021 27.7328C-0.0367188 27.0703 0.0226563 26.399 0.21276 25.7599L0.923177 23.2896L0.926563 23.2771C1.11771 22.5448 1.08516 21.7719 0.833073 21.0583C-0.00755208 18.5693 -0.214583 15.9099 0.230729 13.3208C0.676302 10.7292 1.76172 8.28958 3.38828 6.22292L3.97474 5.47813L0.3125 1.8224C0.1125 1.6224 0 1.35052 0 1.06771C0 0.784375 0.1125 0.513021 0.31276 0.3125C0.513021 0.1125 0.784635 0 1.06771 0C1.35078 0 1.6224 0.1125 1.82266 0.3125L5.48385 3.97396L6.22786 3.38906C8.70625 1.44063 11.7091 0.275 14.8526 0.0411458L14.8865 0.0380208C15.2203 0.00208333 15.5786 0.00104167 16 0.00104167C18.9951 -0.00625 21.9294 0.828646 24.4701 2.4099C27.0107 3.99115 29.0552 6.25521 30.3701 8.94323C31.6849 11.6313 32.2172 14.6354 31.9057 17.6115C31.5945 20.588 30.4521 23.4167 28.6094 25.7745ZM28.599 10.1875C27.618 8.05573 26.112 6.20833 24.2224 4.81719C21.843 3.05625 18.9565 2.1151 15.9964 2.13438H15.9818C15.7776 2.13438 15.5453 2.13438 15.2982 2.14635C15.1878 2.15156 15.0745 2.15938 14.9594 2.17031C12.4326 2.3599 10.0315 3.2474 7.98281 4.73177L6.96979 5.4651L26.5352 25.0302L27.2688 24.0167C28.7555 21.9625 29.6425 19.5354 29.831 17.0068C30.0039 14.6661 29.58 12.3198 28.599 10.1875ZM2.27448 26.3615L2.96771 23.9328C3.28854 22.7745 3.25026 21.55 2.85938 20.4172L2.85729 20.4115C2.15677 18.3443 1.96094 16.1396 2.28594 13.9818C2.61094 11.8234 3.4474 9.77448 4.72552 8.00521L5.45833 6.99063L25.0331 26.5422L24.0148 27.2755C22.0487 28.6917 19.743 29.563 17.3318 29.8021L17.2792 29.8073H17.2344C15.2984 29.987 13.3461 29.7547 11.506 29.126L11.4997 29.1234C10.9169 28.9203 10.3055 28.8109 9.68828 28.799C9.10521 28.8016 8.52526 28.8844 7.96224 29.0464L5.53255 29.7391C4.95833 29.9036 4.34714 29.8714 3.79505 29.6474C3.24219 29.4234 2.78073 29.0208 2.48385 28.5036L2.47135 28.4823L2.46016 28.4599C2.12682 27.8115 2.06042 27.0583 2.27448 26.3615Z" fill="white"/>
</svg>
