<?xml version="1.0" encoding="UTF-8" standalone="no"?>
<svg
   width="32"
   height="32"
   viewBox="0 0 32 32"
   fill="none"
   version="1.1"
   id="svg4"
   sodipodi:docname="paper-pen.svg"
   inkscape:version="1.2.1 (9c6d41e410, 2022-07-14)"
   xmlns:inkscape="http://www.inkscape.org/namespaces/inkscape"
   xmlns:sodipodi="http://sodipodi.sourceforge.net/DTD/sodipodi-0.dtd"
   xmlns="http://www.w3.org/2000/svg"
   xmlns:svg="http://www.w3.org/2000/svg">
  <defs
     id="defs8" />
  <sodipodi:namedview
     id="namedview6"
     pagecolor="#ffffff"
     bordercolor="#000000"
     borderopacity="0.25"
     inkscape:showpageshadow="2"
     inkscape:pageopacity="0.0"
     inkscape:pagecheckerboard="0"
     inkscape:deskcolor="#d1d1d1"
     showgrid="false"
     inkscape:zoom="26.15625"
     inkscape:cx="16.019116"
     inkscape:cy="16.019116"
     inkscape:window-width="1920"
     inkscape:window-height="1017"
     inkscape:window-x="-8"
     inkscape:window-y="32"
     inkscape:window-maximized="1"
     inkscape:current-layer="svg4" />
  <g
     id="path2">
    <path
       style="color:#000000;fill:#ffffff;stroke-linejoin:round;-inkscape-stroke:none"
       d="m 0.84265,28.7219 2.09e-4,5e-4 C 1.0687,29.2681 1.39998,29.7641 1.81821,30.1819 l 0.00276,0.0028 c 0.05605,0.0569 0.11614,0.1133 0.17966,0.1704 l 0.12393,0.1063 c 0.34653,0.2882 0.73473,0.5232 1.15329,0.6961 l 2.6e-4,10e-5 C 3.824,31.3835 4.40943,31.5 5,31.5 h 7 c 0.3974,0 0.7788,-0.158 1.0601,-0.4391 0.1484,-0.1487 0.2626,-0.3251 0.3372,-0.5167 l 5e-4,-0.0012 C 13.4648,30.3723 13.5,30.1881 13.5,30 c 0,-0.1833 -0.0337,-0.363 -0.0974,-0.5313 -0.0291,-0.0767 -0.065,-0.1519 -0.107,-0.2242 -0.0652,-0.1114 -0.1435,-0.2138 -0.2344,-0.3043 l -7e-4,-7e-4 C 12.9307,28.8097 12.7799,28.7061 12.616,28.6322 12.4235,28.5459 12.214,28.5 12,28.5 H 5 C 4.60151,28.5 4.2205,28.3417 3.93941,28.0606 3.65824,27.7794 3.5,27.3979 3.5,27 V 5 C 3.5,4.60213 3.65824,4.22059 3.93941,3.93942 4.2205,3.65833 4.60151,3.5 5,3.5 h 11.6699 c 0.1326,0 0.2598,0.05268 0.3536,0.14645 l 5.3301,5.33008 C 22.4473,9.07029 22.5,9.19747 22.5,9.33008 V 14 c 0,0.1375 0.019,0.2731 0.0556,0.4034 l 1e-4,5e-4 c 0.0689,0.2462 0.2001,0.4729 0.3838,0.6566 0.2813,0.2813 0.663,0.4395 1.0605,0.4395 0.3975,0 0.7792,-0.1582 1.0605,-0.4395 C 25.3418,14.7792 25.5,14.3975 25.5,14 V 9.33008 C 25.5,9.12301 25.4821,8.91763 25.4463,8.71554 25.4018,8.46695 25.3308,8.22361 25.2342,7.98976 l -2e-4,-4.4e-4 C 25.059,7.56474 24.8011,7.17859 24.4763,6.85332 L 19.1468,1.52385 Z m 0,0 C 0.616037,28.176 0.5,27.5912 0.5,27 M 0.84265,28.7219 0.5,27 m 2.88951,-26.201807 -6e-4,2.33e-4 C 2.80557,1.02201 2.26942,1.36735 1.81831,1.818 Z m 0,0 C 3.6028,0.716126 3.82301,0.650339 4.04741,0.602129 L 4.04828,0.60194 M 3.38951,0.798193 4.04828,0.60194 m 0,0 C 4.35849,0.534714 4.67748,0.500002 5,0.500002 h 11.6699 l 5e-4,-10e-7 M 4.04828,0.60194 16.6704,0.500001 m 0,0 c 0.4597,-4.27e-4 0.9152,0.089734 1.3397,0.265283 M 16.6704,0.500001 18.0101,0.765284 M 0.5,27 V 5 m 0,22 V 5 m 0,0 C 0.5,3.80643 0.973686,2.66222 1.81822,1.81808 Z M 18.0101,0.765284 c 0.1641,0.067954 0.322,0.147766 0.473,0.238996 m -0.473,-0.238996 0.473,0.238996 m 0,0 c 0.2407,0.1461 0.4638,0.3201 0.6633,0.5192 z M 30.7719,22.5211 v -10e-5 l -0.0054,0.0054 -7.9453,7.9501 c 0,10e-5 0,10e-5 -10e-5,10e-5 -0.3243,0.3244 -0.7104,0.582 -1.1362,0.7581 -0.4246,0.1756 -0.88,0.2657 -1.3397,0.2653 H 20.3447 19 c -0.1326,0 -0.2592,-0.0525 -0.3531,-0.1462 -0.0552,-0.0555 -0.0965,-0.1231 -0.1211,-0.1965 l -4e-4,-0.0011 C 18.5088,31.1072 18.5,31.0544 18.5,31 v -1.3448 c 9e-4,-0.927 0.3684,-1.816 1.0235,-2.4716 0,0 0,0 10e-5,-10e-5 l 7.9501,-7.9501 v 10e-5 l 0.0054,-0.0056 c 0.345,-0.3559 0.7907,-0.5972 1.2777,-0.6915 0.3701,-0.0666 0.7502,-0.043 1.1083,0.0691 0.1496,0.0469 0.2937,0.1082 0.429,0.1827 l 7e-4,4e-4 c 0.191,0.1046 0.3669,0.237 0.5235,0.3936 0.2659,0.2659 0.4637,0.5925 0.5764,0.9517 0.1117,0.3596 0.1358,0.7399 0.0689,1.1091 -0.0942,0.4865 -0.336,0.9329 -0.6917,1.2781 z M 20.3447,32 H 19 c -0.2656,0 -0.5195,-0.1055 -0.707,-0.293 z m -2.9486,-18.4528 -2e-4,7e-4 c -0.0748,0.1906 -0.1884,0.3656 -0.3354,0.5126 C 16.7792,14.3418 16.3975,14.5 16,14.5 H 10 C 9.60246,14.5 9.22081,14.3418 8.93949,14.0605 8.82409,13.9451 8.72989,13.8138 8.65936,13.6724 l -2.3e-4,-5e-4 C 8.55555,13.4647 8.5,13.235 8.5,13 8.5,12.6025 8.65817,12.2208 8.93949,11.9395 9.22081,11.6582 9.60246,11.5 10,11.5 h 6 c 0.1758,0 0.3484,0.0307 0.5107,0.0895 0.2047,0.0745 0.3931,0.1933 0.5498,0.35 0.2813,0.2813 0.4395,0.663 0.4395,1.0605 0,0.1892 -0.0359,0.3746 -0.1039,0.5472 z M 16,22.5 H 10 C 9.60246,22.5 9.22081,22.3418 8.93949,22.0605 8.65817,21.7792 8.5,21.3975 8.5,21 8.5,20.6025 8.65817,20.2208 8.93949,19.9395 9.22081,19.6582 9.60246,19.5 10,19.5 h 6 c 0.3975,0 0.7792,0.1582 1.0605,0.4395 0.2813,0.2813 0.4395,0.663 0.4395,1.0605 0,0.3975 -0.1582,0.7792 -0.4395,1.0605 C 16.7792,22.3418 16.3975,22.5 16,22.5 Z"
       id="path170" />
    <path
       style="color:#000000;fill:#212121;stroke-linejoin:round;-inkscape-stroke:none"
       d="M 5,0 C 4.6786349,0 4.3616464,0.04129291 4.0507812,0.1015625 c -0.0019,3.6782e-4 -0.00396,-3.7e-4 -0.00586,0 -0.033281,0.006493 -0.068456,0.004558 -0.1015625,0.0117188 h -0.00195 C 3.9293208,0.11588254 3.9183116,0.1223078 3.90625,0.125 v -0.001953 L 3.2460938,0.31835938 v 0.001953 c -0.01151,0.004325 -0.023682,0.007309 -0.035156,0.0117188 h -0.00195 v 0.001953 c -0.031725,0.0121793 -0.05447,0.0418624 -0.085937,0.0546875 l -0.00586,-0.009766 -1.5703125,1.01953125 0.00781,0.00781 c -0.026311,0.025165 -0.064031,0.032807 -0.089844,0.058594 -0.04704,0.047019 -0.064419,0.113446 -0.109375,0.1621094 l -0.00195,0.00391 C 0.54942615,2.502794 0.08703736,3.6200354 0.0390625,4.8046875 l -0.0019531,0.00391 C 0.03449609,4.8745178 0,4.9337719 0,5 v 22 c 0,0.03286 0.01888604,0.06288 0.01953125,0.0957 l -0.00976562,0.002 0.34179687,1.722656 0.009766,-0.002 c 0.0119914,0.03058 0.006923,0.06533 0.0195313,0.0957 v 0.002 c 0.25060723,0.60498 0.61851889,1.153643 1.08203122,1.617187 l 0.00195,0.002 c 0.065507,0.0665 0.1325077,0.129682 0.2011719,0.191406 a 0.50005,0.50005 0 0 0 0.00977,0.0078 l 0.1230469,0.107422 a 0.50005,0.50005 0 0 0 0.00586,0.0039 c 0.3849384,0.320143 0.8177119,0.581151 1.2832031,0.773438 C 3.6943632,31.870111 4.343675,32 5,32 h 7 c 0.529928,0 1.039183,-0.211324 1.414063,-0.585938 0.195377,-0.195771 0.345714,-0.427145 0.445312,-0.679687 a 0.50005,0.50005 0 0 0 0.0039,-0.0078 C 13.953216,30.497429 14,30.250478 14,30 c 0,-0.244584 -0.04416,-0.485086 -0.128906,-0.708984 a 0.50005,0.50005 0 0 0 -0.002,0 c -0.03903,-0.102875 -0.08515,-0.201372 -0.140625,-0.296875 a 0.50005,0.50005 0 0 0 -0.002,-0.002 c -0.08588,-0.14673 -0.189699,-0.283988 -0.3125,-0.40625 -0.172655,-0.172654 -0.373036,-0.311519 -0.591797,-0.410156 a 0.50005,0.50005 0 0 0 -0.002,0 C 12.564633,28.061157 12.285495,28 12,28 H 5 C 4.7339268,28 4.4806834,27.894753 4.2929687,27.707031 4.1053553,27.519398 4,27.265337 4,27 V 24.927734 L 10.681641,15 H 16 c 0.530162,0 1.039127,-0.211002 1.414062,-0.585937 0.196225,-0.196225 0.347596,-0.429622 0.447266,-0.683594 C 17.952089,13.500097 18,13.252449 18,13 18,12.469838 17.788998,11.960873 17.414062,11.585938 17.205018,11.376893 16.954216,11.218344 16.681641,11.119141 16.465006,11.040656 16.23401,11 16,11 H 13.373047 L 17.515625,4.8457031 22,9.3300781 V 14 c 0,0.18356 0.02538,0.365187 0.07422,0.539063 0.09183,0.328126 0.266752,0.630033 0.511718,0.875 C 22.960873,15.788998 23.469838,16 24,16 24.530162,16 25.039127,15.788998 25.414062,15.414063 25.788998,15.039127 26,14.530162 26,14 V 9.3300781 c 0,-0.2358845 -0.01959,-0.4699767 -0.06055,-0.7011718 a 0.50005,0.50005 0 0 0 -0.002,-0.00195 C 25.886718,8.3432698 25.807589,8.0658998 25.697266,7.7988281 a 0.50005,0.50005 0 0 0 -0.0078,-0.015625 l 0.0059,0.015625 C 25.495062,7.3129859 25.201176,6.8716351 24.830078,6.5 L 19.5,1.1699219 c -0.01454,-0.014515 -0.03407,-0.022834 -0.04883,-0.037109 l 0.0039,-0.00391 -0.664062,-0.51757808 -0.002,0.001953 c -0.01687,-0.0105782 -0.02985,-0.0267783 -0.04687,-0.0371094 -0.01069,-0.006461 -0.02245,-0.0112178 -0.0332,-0.0175781 L 18.236328,0.31835938 v 0.001953 c -0.01208,-0.005142 -0.02302,-0.0125515 -0.03516,-0.0175781 -0.03037,-0.0125599 -0.06506,-0.007738 -0.0957,-0.0195313 l 0.002,-0.007813 -1.339844,-0.265625 -0.002,0.00976562 C 16.732794,0.01875269 16.702798,-3.0537675e-5 16.669922,0 h -0.0039 z m 11.623047,1 h 0.002 l 1.224609,0.2441406 0.365235,0.1855469 0.257812,0.2011719 -1.113281,1.6542969 C 17.173405,3.1065287 16.928291,3 16.669922,3 H 5 C 4.4690689,3 3.960389,3.211486 3.5859375,3.5859375 3.2111727,3.9607023 3,4.4695579 3,5 V 24.621094 L 1.0996094,27.445312 1,26.951172 V 5.1015625 l 1.21875,-2.9472656 1.3808594,-0.8964844 0.00391,-0.00195 0.5234375,-0.1542969 z m 2.599609,1.3066406 4.900391,4.9003906 c 0.278501,0.2789043 0.498688,0.6093394 0.648437,0.9726563 0.08288,0.2006278 0.145376,0.4095507 0.183594,0.6230469 h -0.002 C 24.983769,8.9757188 25,9.151823 25,9.3300781 V 14 c 0,0.264837 -0.105305,0.519367 -0.292969,0.707031 C 24.519367,14.894695 24.264837,15 24,15 c -0.264837,0 -0.519367,-0.105305 -0.707031,-0.292969 -0.122026,-0.122025 -0.209765,-0.271908 -0.25586,-0.435547 -1.53e-4,-5.46e-4 1.53e-4,-0.0014 0,-0.002 a 0.50005,0.50005 0 0 0 0,-0.002 C 23.012749,14.180853 23,14.091439 23,14 V 9.3300781 C 23,9.0649997 22.894276,8.8104114 22.707031,8.6230469 L 18.083984,4 Z M 5,4 h 11.669922 l 0.125,0.125 L 12.166016,11 H 10 C 9.4698114,11 8.9608639,11.211038 8.5859375,11.585938 8.2109615,11.960887 8,12.469863 8,13 c 0,0.312496 0.074335,0.616067 0.2109375,0.890625 5.674e-4,0.0011 -5.696e-4,0.0028 0,0.0039 a 0.50005,0.50005 0 0 0 0.00195,0.002 c 0.094719,0.189895 0.219759,0.364291 0.3730469,0.517579 0.26618,0.266161 0.642985,0.33192 1.0039063,0.416015 L 4,23.134766 V 5 C 4,4.7347029 4.1053941,4.4805434 4.2929687,4.2929687 4.4806967,4.1052408 4.7339519,4 5,4 Z m 5,8 h 1.494141 l -1.345703,2 H 10 C 9.7351094,14 9.4806818,13.894731 9.2929688,13.707031 9.2154568,13.629519 9.153763,13.542124 9.1074219,13.449219 l 0.00586,0.01367 a 0.50005,0.50005 0 0 0 -0.00781,-0.01367 C 9.0360044,13.310263 9,13.156206 9,13 9,12.735138 9.1053053,12.480619 9.2929688,12.292969 9.4806818,12.105269 9.7351094,12 10,12 Z m 2.699219,0 H 16 c 0.11759,0 0.231879,0.02143 0.339844,0.06055 v -0.002 c 0.136824,0.0498 0.262832,0.13002 0.367187,0.234375 C 16.894695,12.480633 17,12.735163 17,13 c 0,0.125951 -0.02312,0.248454 -0.06836,0.363281 a 0.50005,0.50005 0 0 0 -0.002,0.002 c -0.04993,0.127228 -0.124881,0.244022 -0.222656,0.341797 C 16.519367,13.894695 16.264837,14 16,14 h -4.646484 z m 10.339843,2.277344 0.0078,0.0293 -0.002,-0.002 a 0.50005,0.50005 0 0 0 -0.0059,-0.02734 z m 5.623047,3.767578 c -0.585929,0.113456 -1.123314,0.40641 -1.539062,0.833984 -4.08e-4,4.2e-4 -0.0015,-4.19e-4 -0.002,0 l -0.002,0.002 -0.0059,0.0059 -7.943359,7.943359 C 18.421164,27.579408 18.001028,28.595462 18,29.654297 V 31 c 0,0.108321 0.01834,0.214884 0.05273,0.316406 a 0.50005,0.50005 0 0 0 0,0.0039 l 0.002,0.002 c 6.51e-4,0.0019 0.0013,0.004 0.002,0.0059 0.0044,0.01246 0.01665,0.02093 0.02148,0.0332 a 0.50005,0.50005 0 0 0 -0.138672,0.699219 c 0.07753,0.07753 0.201817,0.06295 0.292969,0.121094 l -0.0098,0.01953 0.08594,0.01172 C 18.530832,32.33771 18.740446,32.5 19,32.5 h 1.34375 a 0.50005,0.50005 0 0 0 0.447266,-0.587891 c 0.36874,-0.04199 0.741649,-0.07246 1.085937,-0.214843 0.486289,-0.201117 0.925857,-0.496055 1.296875,-0.867188 l -0.353516,0.146484 c 0,0 10e-7,-0.5 0,-0.5 l 0.353516,0.353516 h 0.002 l 7.94336,-7.949219 0.0039,-0.0039 c 6.46e-4,-6.29e-4 0.0013,-0.0013 0.002,-0.002 0.426218,-0.415669 0.716828,-0.952225 0.830078,-1.537109 a 0.50005,0.50005 0 0 0 0,-0.0059 c 0.0814,-0.449202 0.05325,-0.91019 -0.08203,-1.345703 a 0.50005,0.50005 0 0 0 -0.002,-0.002 c -0.13681,-0.436042 -0.376233,-0.833264 -0.699219,-1.15625 -0.189336,-0.189336 -0.403246,-0.350656 -0.636719,-0.478516 -0.165184,-0.09095 -0.338717,-0.164017 -0.519531,-0.220703 a 0.50005,0.50005 0 0 0 -0.002,0 C 29.5784,17.992648 29.117061,17.964107 28.667969,18.044922 a 0.50005,0.50005 0 0 0 -0.0059,0 z M 10,19 C 9.4698114,19 8.9608639,19.211038 8.5859375,19.585937 8.2109615,19.960887 8,20.469863 8,21 8,21.530137 8.2109615,22.039113 8.5859375,22.414062 8.9608639,22.788962 9.4698114,23 10,23 h 6 c 0.530162,0 1.039127,-0.211002 1.414062,-0.585938 C 17.788998,22.039127 18,21.530162 18,21 18,20.469838 17.788998,19.960873 17.414062,19.585937 17.039127,19.211002 16.530162,19 16,19 Z m 18.845703,0.0293 h 0.002 c 0.290488,-0.05195 0.58689,-0.03501 0.867188,0.05273 0.118385,0.03711 0.232474,0.08649 0.33789,0.144531 a 0.50005,0.50005 0 0 0 0.002,0 c 0.148527,0.08134 0.286293,0.184731 0.410157,0.308594 0.208813,0.208814 0.364534,0.46569 0.453125,0.748047 0.08742,0.282488 0.104588,0.581191 0.05273,0.869141 -1.16e-4,6.44e-4 1.17e-4,0.0013 0,0.002 -0.07553,0.383402 -0.265994,0.735223 -0.546875,1.007812 l 0.0078,0.0039 a 0.50005,0.50005 0 0 0 -0.01367,0.002 l -0.0059,0.0039 a 0.50005,0.50005 0 0 0 0,0.002 l -7.945312,7.949219 c -0.277581,0.277666 -0.607346,0.499308 -0.972656,0.65039 C 21.1304,30.923868 20.739783,31.000343 20.345703,31 H 20.34375 19 c 0,1.91e-4 4.6e-5,-0.0016 0,-0.002 v -1.341797 -0.002 c 0.0013,-0.794485 0.315955,-1.555761 0.876953,-2.117188 l 7.951172,-7.949218 -0.0098,-0.0039 a 0.50005,0.50005 0 0 0 0.01563,-0.0039 l 0.0039,-0.0039 0.002,-0.002 c 0.272109,-0.279917 0.622528,-0.46941 1.005859,-0.544922 z M 10,20 h 6 c 0.264837,0 0.519367,0.105305 0.707031,0.292969 C 16.894695,20.480633 17,20.735163 17,21 17,21.264837 16.894695,21.519367 16.707031,21.707031 16.519367,21.894695 16.264837,22 16,22 H 10 C 9.7351094,22 9.4806818,21.894731 9.2929688,21.707031 9.1053053,21.519381 9,21.264862 9,21 9,20.735138 9.1053053,20.480619 9.2929688,20.292969 9.4806818,20.105269 9.7351094,20 10,20 Z M 3,26.414062 V 27 c 0,0.530462 0.2112115,1.039297 0.5859375,1.414062 C 3.9604023,28.788541 4.469094,29 5,29 h 7 c 0.141859,0 0.281329,0.03043 0.410156,0.08789 0.109038,0.04916 0.20993,0.118133 0.296875,0.205078 a 0.50005,0.50005 0 0 0 0.002,0.002 c 0.059,0.05874 0.109775,0.125102 0.154297,0.201172 0.02852,0.0491 0.0531,0.09987 0.07227,0.15039 C 12.978203,29.759186 13,29.877984 13,30 c 0,0.125722 -0.0243,0.247109 -0.06836,0.359375 a 0.50005,0.50005 0 0 0 0,0.0039 c -0.04965,0.127521 -0.125273,0.244213 -0.22461,0.34375 C 12.519311,30.894618 12.264872,31 12,31 H 5 C 4.4751862,31 3.9540563,30.896142 3.46875,30.695312 3.097122,30.541799 2.7514803,30.332428 2.4433594,30.076172 l -0.109375,-0.09375 -0.00781,-0.0078 C 2.2713363,29.925096 2.2219394,29.87886 2.1777344,29.833984 l -0.00391,-0.0039 a 0.50005,0.50005 0 0 0 -0.00195,-0.002 C 1.8579115,29.514484 1.6332389,29.130009 1.4394531,28.732422 Z"
       id="path172" />
  </g>
</svg>
