<svg width="14" height="11" viewBox="0 0 14 11" fill="none" xmlns="http://www.w3.org/2000/svg">
<path d="M0.890353 4.7286C4.95658 2.93981 10.2183 0.758938 10.9448 0.457025C12.85 -0.332952 13.4346 -0.181705 13.1431 1.56811C12.9337 2.82579 12.3299 6.98917 11.8482 9.58074C11.5626 11.1176 10.9216 11.2997 9.91401 10.6348C9.42944 10.3149 6.9833 8.69711 6.45219 8.31724C5.96761 7.97112 5.29922 7.55461 6.13748 6.73438C6.4359 6.44235 8.39106 4.57503 9.91459 3.12189C10.1141 2.93108 9.8634 2.61754 9.63304 2.77053C7.57956 4.13234 4.73262 6.02235 4.37021 6.26842C3.82281 6.64014 3.29693 6.81058 2.35338 6.5395C1.64019 6.33474 0.943871 6.09041 0.672789 5.99734C-0.371401 5.639 -0.123587 5.17478 0.890353 4.7286Z" fill="white"/>
</svg>
