<svg width="16" height="16" viewBox="0 0 16 16" fill="none" xmlns="http://www.w3.org/2000/svg">
<path d="M8.08354 0.150447H7.99978C5.91781 0.150447 3.92122 0.977459 2.44912 2.44955C0.977012 3.92184 0.15 5.91848 0.15 8.00022C0.15 10.082 0.977014 12.0788 2.44911 13.5509C3.92139 15.023 5.91803 15.85 7.99978 15.85H8.84969V14.1499H7.99978C6.36869 14.1499 4.80433 13.502 3.65105 12.3487C2.49778 11.1954 1.84983 9.63104 1.84983 8C1.84983 6.36896 2.49778 4.80455 3.65105 3.65128C4.80433 2.498 6.36874 1.85006 7.99978 1.85006C9.63081 1.85006 11.1952 2.498 12.3485 3.65128C13.5018 4.80455 14.1497 6.36896 14.1497 8V8.99992C14.1497 9.41083 13.9305 9.79042 13.5748 9.99596L13.5748 9.99599C13.219 10.2013 12.7806 10.2014 12.4249 9.99599L12.4248 9.99596C12.0691 9.79042 11.8499 9.41083 11.8499 8.99992V8V7.99941C11.8546 6.80585 11.3077 5.67705 10.3681 4.94092C9.42834 4.20497 8.20137 3.94443 7.04377 4.23519L7.04375 4.2352C5.88607 4.52578 4.92756 5.33494 4.44711 6.42743L4.44711 6.42744C3.96646 7.52015 4.01752 8.77348 4.58559 9.82317L4.5856 9.82319C5.15352 10.8729 6.17482 11.6015 7.35229 11.7967L7.35231 11.7967C8.52974 11.9921 9.73136 11.6325 10.608 10.8224L10.7231 10.716L10.8243 10.8356C11.33 11.433 12.059 11.7963 12.8403 11.8401C13.6218 11.8838 14.3868 11.6043 14.9561 11.0672L8.08354 0.150447ZM8.08354 0.150447C9.43261 0.164835 10.7557 0.526718 11.9249 1.2017C13.1183 1.89063 14.1092 2.88157 14.7982 4.07493C15.4871 5.26834 15.8499 6.62204 15.8499 8.00004V8.99971C15.8485 9.78244 15.5252 10.5299 14.9561 11.0672L8.08354 0.150447ZM6.47939 9.52078L6.47945 9.52084C6.88268 9.92385 7.42948 10.1505 7.99978 10.1505C8.57007 10.1505 9.1169 9.92385 9.52011 9.52083L9.52017 9.52078C9.92318 9.11754 10.1498 8.57075 10.1498 8.00045C10.1498 7.43015 9.92319 6.88332 9.52016 6.48011L9.52011 6.48006C9.11687 6.07705 8.57008 5.85039 7.99978 5.85039C7.42948 5.85039 6.88265 6.07704 6.47944 6.48006L6.47939 6.48012C6.07638 6.88335 5.84972 7.43015 5.84972 8.00045C5.84972 8.57074 6.07637 9.11757 6.47939 9.52078Z" fill="#5E5E5E" stroke="#0F0F0F" stroke-width="0.3"/>
</svg>
