<svg width="16" height="10" viewBox="0 0 16 10" fill="none" xmlns="http://www.w3.org/2000/svg">
<path d="M8.64139 9.5C3.71265 9.5 0.902402 6.1277 0.787109 0.507206H3.26589C3.34516 4.6289 5.16101 6.3727 6.60216 6.73299V0.507206H8.92962V4.05965C10.3492 3.90833 11.848 2.28703 12.3524 0.5H14.6726C14.4834 1.42505 14.1055 2.30115 13.5625 3.07356C13.0194 3.84597 12.3229 4.4981 11.5165 4.98919C12.4164 5.43712 13.2112 6.07074 13.8484 6.84827C14.4856 7.6258 14.9507 8.52958 15.2131 9.5H12.655C12.1074 7.79223 10.7383 6.46637 8.92962 6.28623V9.5H8.6486H8.64139Z" fill="white"/>
</svg>
