<svg width="20" height="20" viewBox="0 0 20 20" fill="none" xmlns="http://www.w3.org/2000/svg">
<path d="M8.97524 6.08141C9.15372 5.89774 9.39783 5.7922 9.6538 5.78831C9.91519 5.78421 10.1671 5.88611 10.3521 6.07064C10.5372 6.25539 10.6395 6.50706 10.6359 6.76843V8.70229H12.5697C12.8285 8.69862 13.078 8.79898 13.2623 8.98071C13.4466 9.16245 13.5505 9.41043 13.5505 9.66922C13.5505 9.92801 13.4466 10.176 13.2623 10.3577C13.078 10.5395 12.8285 10.6398 12.5697 10.6362H10.6359V12.57C10.6395 12.8288 10.5394 13.0783 10.3577 13.2626C10.1759 13.4469 9.92793 13.5507 9.66893 13.5507C9.41014 13.5507 9.16216 13.4469 8.98042 13.2626C8.79869 13.0783 8.69833 12.8288 8.702 12.57V10.6362H6.76814C6.50937 10.6398 6.25986 10.5395 6.07554 10.3577C5.89122 10.176 5.78741 9.92801 5.78741 9.66922C5.78741 9.41043 5.89122 9.16245 6.07554 8.98071C6.25985 8.79898 6.50936 8.69862 6.76814 8.70229H8.702V6.76843C8.69854 6.51222 8.79674 6.2653 8.97524 6.08141Z" fill="white"/>
<path fill-rule="evenodd" clip-rule="evenodd" d="M0 9.66929C0 4.34063 4.34063 0 9.66929 0C14.9979 0 19.3385 4.34048 19.3385 9.66914C19.3385 11.9863 18.5158 14.1144 17.1498 15.7823L19.7038 18.3363C19.8907 18.5165 19.9975 18.7641 20.0001 19.0237C20.0025 19.2834 19.9004 19.5331 19.7169 19.7168C19.5333 19.9005 19.2835 20.0025 19.0239 20C18.7643 19.9976 18.5165 19.8907 18.3365 19.7036L15.7825 17.1498C14.1146 18.5156 11.9865 19.3386 9.66929 19.3386C4.34063 19.3386 0 14.9979 0 9.66929ZM17.4047 9.66929C17.4047 5.38568 13.9529 1.93386 9.66929 1.93386C5.38568 1.93386 1.93386 5.38568 1.93386 9.66929C1.93386 13.9529 5.38568 17.4047 9.66929 17.4047C13.9529 17.4047 17.4047 13.9529 17.4047 9.66929Z" fill="white"/>
</svg>
